# xmcd
#
# Track frame offsets:
# 150
# 12705
# 28247
# 42720
# 55967
# 70722
# 89495
# 106242
# 123497
# 138692
# 150270
# 167935
# 183510
# 202270
# 220267
#
# Disc length: 3202 seconds
#
#
# Revision: 3
# Processed by: cddbd v1.5.1PL2 Copyright (c) Steve Scherf et al.
# Submitted via: FreeRIP 2.943 
#
DISCID=e70c800f
DTITLE=Dolly Parton - The Ultimate Collection D2
DYEAR=1900
DGENRE=Country
TTITLE0=9 To 5
TTITLE1=Old Flames  Can't Hold A Candle To You
TTITLE2=But You Know I Love You
TTITLE3=I Will Alway Love You
TTITLE4=Potential New Boyfiend
TTITLE5=Islands In The Stream
TTITLE6=Save The Last Dance For Me
TTITLE7=Real Love
TTITLE8=Think About Love
TTITLE9=Why'd You Come In Lookin' Like That
TTITLE10=Yellow Roses
TTITLE11=Rockin' Years
TTITLE12=Before The Next Teardrop Falls
TTITLE13=Today I Started Loving You
TTITLE14=Peace Train
EXTD=
EXTT0=
EXTT1=
EXTT2=
EXTT3=
EXTT4=
EXTT5=
EXTT6=
EXTT7=
EXTT8=
EXTT9=
EXTT10=
EXTT11=
EXTT12=
EXTT13=
EXTT14=
PLAYORDER=
